<svg width="30" height="30" viewBox="0 0 30 30" fill="none" xmlns="http://www.w3.org/2000/svg">
<path d="M24.8533 6.10161L23.9333 5.18168C23.6733 4.9217 23.1934 4.96171 22.8934 5.32164L19.6931 8.5016C18.253 7.88167 16.6732 7.58167 15.0131 7.58167C10.073 7.60159 5.79324 10.4816 3.73309 14.6218C3.61306 14.8818 3.61306 15.2017 3.73309 15.4217C4.69301 17.3817 6.1331 19.0018 7.9331 20.2217L5.31311 22.8817C5.01311 23.1817 4.9731 23.6616 5.17315 23.9216L6.09309 24.8416C6.35307 25.1016 6.83306 25.0615 7.13306 24.7016L24.6929 7.14176C25.073 6.84192 25.113 6.36197 24.853 6.10196L24.8533 6.10161ZM16.0731 12.1415C15.7331 12.0614 15.3732 11.9615 15.0331 11.9615C13.3331 11.9615 11.9732 13.3215 11.9732 15.0214C11.9732 15.3614 12.0532 15.7214 12.1532 16.0614L10.813 17.3814C10.4131 16.6815 10.1931 15.9014 10.1931 15.0215C10.1931 12.3615 12.3331 10.2215 14.9931 10.2215C15.8732 10.2215 16.6531 10.4414 17.3531 10.8414L16.0731 12.1415Z" fill="white" fill-opacity="0.8"/>
<path d="M26.2933 14.6217C25.5934 13.2217 24.6733 11.9618 23.5334 10.9417L19.8134 14.6217V15.0217C19.8134 17.6817 17.6733 19.8217 15.0133 19.8217H14.6134L12.2534 22.1817C13.1335 22.3616 14.0534 22.4817 14.9534 22.4817C19.8936 22.4817 24.1733 19.6017 26.2335 15.4415C26.4134 15.1614 26.4134 14.8815 26.2934 14.6215L26.2933 14.6217Z" fill="white" fill-opacity="0.8"/>
</svg>
