<svg width="30" height="30" viewBox="0 0 30 30" fill="none" xmlns="http://www.w3.org/2000/svg">
<g clip-path="url(#clip0_20_3442)">
<path d="M15 7.5C10.0258 7.5 5.75802 10.5096 3.90049 14.8061C3.79999 15.0386 3.79999 15.3023 3.90049 15.5348C5.75802 19.8313 10.0258 22.8409 15 22.8409C19.9742 22.8409 24.242 19.8313 26.0995 15.5348C26.2 15.3023 26.2 15.0386 26.0995 14.8061C24.242 10.5096 19.9742 7.5 15 7.5ZM15 20.2841C12.1773 20.2841 9.88636 17.9932 9.88636 15.1705C9.88636 12.3477 12.1773 10.0568 15 10.0568C17.8227 10.0568 20.1136 12.3477 20.1136 15.1705C20.1136 17.9932 17.8227 20.2841 15 20.2841ZM15 12.1023C13.3023 12.1023 11.9318 13.4727 11.9318 15.1705C11.9318 16.8682 13.3023 18.2386 15 18.2386C16.6977 18.2386 18.0682 16.8682 18.0682 15.1705C18.0682 13.4727 16.6977 12.1023 15 12.1023Z" fill="white" fill-opacity="0.8"/>
</g>
<defs>
<clipPath id="clip0_20_3442">
<rect width="30" height="30" fill="white"/>
</clipPath>
</defs>
</svg>
