<?xml version="1.0" encoding="UTF-8"?>
<!DOCTYPE svg PUBLIC "-//W3C//DTD SVG 1.1//EN" "http://www.w3.org/Graphics/SVG/1.1/DTD/svg11.dtd">
<!-- Creator: CorelDRAW -->
<svg xmlns="http://www.w3.org/2000/svg" xml:space="preserve" width="300mm" height="300mm" version="1.1" style="shape-rendering:geometricPrecision; text-rendering:geometricPrecision; image-rendering:optimizeQuality; fill-rule:evenodd; clip-rule:evenodd"
viewBox="0 0 30000 30000"
 xmlns:xlink="http://www.w3.org/1999/xlink"
 xmlns:xodm="http://www.corel.com/coreldraw/odm/2003">
 <defs>
  <style type="text/css">
   <![CDATA[
    .fil0 {fill:none}
    .fil1 {fill:#54C2F0}
    .fil2 {fill:#E8528D}
   ]]>
  </style>
 </defs>
 <g id="Layer_x0020_1">
  <metadata id="CorelCorpID_0Corel-Layer"/>
  <rect class="fil0" x="-2.93" y="2.93" width="30000" height="30000"/>
  <g id="_1490263993648">
   <g>
    <path class="fil1" d="M14260.51 17130.75l-1613.71 1075.83c0,-3632.63 0.15,-7265.12 0.15,-10897.75l-2783.7 -1934.92 0 18157.42 6835.77 -4705.47 -2438.51 -1695.11z"/>
    <polygon class="fil2" points="13302.43,7764.54 13302.43,16960.96 16085.9,15044.8 16085.9,13089.21 18047.41,14452.43 17254.27,15003.99 14815.76,16698.79 22361.73,21943.6 22361.73,18553.61 19692.63,16698.94 22924.28,14452.66 "/>
   </g>
   <path class="fil1" d="M20198.07 27816.19l-0.27 0.62 -103.07 40.87c-8.16,3.23 -16.33,6.49 -24.49,9.71l-513.66 203.84 5.7 -14.74c-5487.07,1921.36 -11638.75,194.21 -15323.19,-4370.9 -4167.02,-5163.08 -4079.18,-12577.25 212.62,-17626.58 180.53,-212.4 367.55,-419.33 560.58,-620.39l-754.79 -935.14 4232.87 -663.34 -67.35 367.95 -1424.09 3691.95 -677.37 -839.19c-166.18,181.11 -326.72,367.42 -481.21,558.59 -3473.63,4299.26 -3470.62,10462.29 5.56,14769.36 1756.02,2175.74 4202.51,3644.23 6949.29,4166.41 2688.64,511.13 5481.72,74.02 7879.27,-1250.93l16.06 -8.91c505.58,-280.42 990.02,-598.19 1449.16,-949.54 82.05,-62.85 163.36,-126.73 243.78,-191.65 384.55,-310.35 749.81,-644.36 1092.73,-1000.12 237.12,-246.04 463.47,-502.36 678.21,-768.13 633.45,-784.05 1150.77,-1630.26 1552.92,-2515.66 324.74,221.72 703.95,356.03 1106.46,356.03 414.73,0 804.62,-142.66 1135.71,-376.55 -546.09,1463.14 -1348.29,2851.83 -2406.41,4096.66 -229.57,270.09 -469.52,531.31 -719.21,782.91 -361.25,364.06 -742.66,707.91 -1143.8,1031.81 -648.37,523.28 -1342.65,988.56 -2074.35,1387.71 -456.14,248.86 -926.32,471.77 -1407.66,667.35zm6451.12 -14401.1c-281.88,-2070.6 -1114.93,-4081.96 -2500.3,-5798.47 -1760.78,-2181.66 -4215.62,-3652 -6970.78,-4170.51 -2619.75,-493 -5340.83,-84.84 -7692.87,1165.69l968.69 -2669.84c5480.18,-1909.01 11621.36,-182.21 15301.74,4377.83 2028.27,2513.1 3048.12,5559.59 3066.17,8607.04 -107.83,-303.33 -287.35,-585.91 -498.74,-814.33 -390.63,-422.11 -925.39,-704.92 -1509.31,-704.92 -55.35,0 -110.22,2.56 -164.6,7.51zm2095.27 3057.3c-19.82,187.2 -43.47,374.04 -70.89,560.44 -45.59,-74.33 -97.81,-145.92 -157.13,-215.97 92.73,-109.47 168.21,-222.87 228.02,-344.47z"/>
   <g>
    <path class="fil2" d="M26813.8 13881.65c907.18,0 1642.34,926.7 1642.34,1642.66 0,715.96 -245.99,992.02 -628.76,1292.47 382.77,300.77 628.76,576.67 628.76,1292.79 0,716.11 -735.16,1642.66 -1642.34,1642.66 -907.34,0 -1642.98,-926.55 -1642.98,-1642.66 0,-716.12 246,-992.02 628.77,-1292.79 -382.77,-300.45 -628.77,-576.51 -628.77,-1292.47 0,-715.96 735.64,-1642.66 1642.98,-1642.66zm-0.32 3835.71c204.29,0 369.87,165.57 369.87,369.86 0,204.29 -165.58,369.86 -369.87,369.86 -204.29,0 -369.86,-165.57 -369.86,-369.86 0,-204.29 165.57,-369.86 369.86,-369.86zm0 -2540.56c204.29,0 369.87,165.57 369.87,369.86 0,204.29 -165.58,369.86 -369.87,369.86 -204.29,0 -369.86,-165.57 -369.86,-369.86 0,-204.29 165.57,-369.86 369.86,-369.86z"/>
    <path class="fil1" d="M22841.48 18244.92l-2173.22 -1510.3 4116.65 -2852.97 0 4363.27 0 1506.52 -1943.43 0 0 -1506.52zm704.15 -1015.47l0 -1039.39 -749.95 519.7 749.95 519.69z"/>
   </g>
  </g>
 </g>
</svg>
