<svg width="28" height="28" viewBox="0 0 28 28" fill="none" xmlns="http://www.w3.org/2000/svg">
<path d="M7.39458 17.3185C7.53132 16.1863 7.99566 15.5525 8.87068 14.9026C10.1227 14.0226 11.6866 14.5204 11.6866 14.5204V11.5671C12.0668 11.5574 12.4472 11.58 12.8232 11.6345V15.4351C12.8232 15.4351 11.2598 14.9372 10.0078 15.8177C9.13324 16.4671 8.66795 17.1014 8.53169 18.2336C8.52742 18.8484 8.64279 19.652 9.17407 20.3469C9.04271 20.2795 8.90882 20.2028 8.7724 20.1166C7.60207 19.3307 7.38889 18.1517 7.39458 17.3185ZM19.2808 6.10655C18.4195 5.16278 18.0938 4.2099 17.9761 3.54053H19.0595C19.0595 3.54053 18.8435 5.29565 20.4179 7.02165L20.4397 7.04486C20.0154 6.77795 19.6263 6.4629 19.2808 6.10655ZM24.5 8.78224V12.5064C24.5 12.5064 23.1175 12.4522 22.0943 12.1919C20.6657 11.8279 19.7475 11.2695 19.7475 11.2695C19.7475 11.2695 19.1132 10.8714 19.0619 10.8436V18.5339C19.0619 18.9621 18.9446 20.0315 18.5871 20.9234C18.1204 22.0901 17.4001 22.856 17.2677 23.0125C17.2677 23.0125 16.3917 24.0478 14.8463 24.7449C13.4533 25.3738 12.2302 25.3579 11.8647 25.3738C11.8647 25.3738 9.75046 25.4575 7.848 24.2211C7.43661 23.9486 7.05259 23.64 6.70093 23.2992L6.71042 23.306C8.61335 24.5424 10.7271 24.4587 10.7271 24.4587C11.0931 24.4428 12.3162 24.4587 13.7087 23.8298C15.2527 23.1327 16.1301 22.0974 16.1301 22.0974C16.2611 21.9409 16.9847 21.175 17.4495 20.0078C17.8061 19.1164 17.9243 18.0466 17.9243 17.6184V9.92896C17.9756 9.95717 18.6094 10.3553 18.6094 10.3553C18.6094 10.3553 19.5281 10.9141 20.9567 11.2777C21.9804 11.538 23.3625 11.5922 23.3625 11.5922V8.67394C23.8353 8.77996 24.2384 8.80863 24.5 8.78224Z" fill="#EE1D52"/>
<path d="M23.3628 8.67393V11.5913C23.3628 11.5913 21.9807 11.5371 20.957 11.2768C19.5284 10.9128 18.6097 10.3544 18.6097 10.3544C18.6097 10.3544 17.9759 9.95626 17.9246 9.92805V17.6193C17.9246 18.0475 17.8073 19.1173 17.4498 20.0087C16.9831 21.176 16.2629 21.9418 16.1304 22.0983C16.1304 22.0983 15.254 23.1336 13.709 23.8307C12.3165 24.4596 11.0934 24.4437 10.7274 24.4596C10.7274 24.4596 8.61365 24.5433 6.71072 23.3069L6.70122 23.3001C6.50032 23.1056 6.3112 22.9002 6.13481 22.6849C5.52756 21.9445 5.15533 21.069 5.0618 20.8192C5.06164 20.8181 5.06164 20.8171 5.0618 20.816C4.91129 20.3819 4.59509 19.3394 4.63829 18.3296C4.71473 16.5481 5.34145 15.4546 5.50715 15.1807C5.94599 14.4337 6.51676 13.7653 7.19405 13.2053C7.79172 12.7221 8.46916 12.3376 9.19858 12.0677C9.98711 11.7507 10.8315 11.5808 11.6864 11.5671V14.5204C11.6864 14.5204 10.1225 14.0244 8.87098 14.9026C7.99596 15.5525 7.53162 16.1863 7.39488 17.3185C7.38918 18.1517 7.60236 19.3307 8.77175 20.1171C8.90817 20.2035 9.04206 20.2803 9.17342 20.3473C9.37771 20.6129 9.62636 20.8443 9.90933 21.0322C11.0517 21.7552 12.0088 21.8057 13.2328 21.3361C14.049 21.0221 14.6633 20.3145 14.9482 19.5305C15.1272 19.0409 15.1248 18.548 15.1248 18.0384V3.54053H17.9735C18.0913 4.2099 18.417 5.16278 19.2782 6.10655C19.6237 6.4629 20.0128 6.77795 20.4372 7.04486C20.5625 7.17455 21.2035 7.81571 22.0263 8.20933C22.4517 8.41279 22.9001 8.56868 23.3628 8.67393Z" fill="black"/>
<path d="M3.92822 19.9124V19.9146L3.99891 20.1062C3.99079 20.0839 3.96452 20.0161 3.92822 19.9124Z" fill="#69C9D0"/>
<path d="M9.19872 12.0678C8.46929 12.3378 7.79185 12.7222 7.19418 13.2054C6.51668 13.7667 5.94605 14.4364 5.50776 15.1849C5.34206 15.4579 4.71535 16.5523 4.63891 18.3338C4.5957 19.3436 4.91191 20.3861 5.06241 20.8202C5.06225 20.8213 5.06225 20.8224 5.06241 20.8234C5.15737 21.071 5.52817 21.9465 6.13542 22.6891C6.31181 22.9044 6.50093 23.1098 6.70183 23.3043C6.05812 22.8776 5.48403 22.3618 4.99832 21.7736C4.39629 21.0396 4.02501 20.1731 3.92816 19.9174C3.92804 19.9156 3.92804 19.9138 3.92816 19.9119V19.9088C3.77718 19.4751 3.46002 18.4321 3.50418 17.421C3.58062 15.6395 4.20733 14.546 4.37303 14.2721C4.81119 13.5235 5.38183 12.8537 6.05945 12.2926C6.657 11.8092 7.33447 11.4248 8.06399 11.155C8.51902 10.974 8.99305 10.8405 9.47789 10.7568C10.2086 10.6346 10.9548 10.624 11.6889 10.7254V11.5673C10.8332 11.5807 9.98799 11.7506 9.19872 12.0678Z" fill="#69C9D0"/>
<path d="M17.9761 3.54056H15.1274V18.0389C15.1274 18.5485 15.1274 19.04 14.9507 19.531C14.663 20.3146 14.051 21.0222 13.2354 21.3362C12.0109 21.8076 11.0537 21.7553 9.91188 21.0322C9.62843 20.8451 9.37914 20.6145 9.17407 20.3496C10.1469 20.847 11.0177 20.8383 12.0964 20.4233C12.9116 20.1093 13.5245 19.4017 13.8113 18.6177C13.9907 18.1281 13.9884 17.6352 13.9884 17.126V2.625H17.9219C17.9219 2.625 17.8778 2.9854 17.9761 3.54056ZM23.3629 7.86716V8.67397C22.9011 8.56855 22.4535 8.41266 22.0288 8.20936C21.206 7.81574 20.5651 7.17458 20.4397 7.04489C20.5852 7.13641 20.7361 7.21968 20.8917 7.29426C21.8921 7.77297 22.8772 7.91585 23.3629 7.86716Z" fill="#69C9D0"/>
</svg>
